<svg xmlns="http://www.w3.org/2000/svg" viewBox="0 0 100.55 80.7"><g id="图层_2" data-name="图层 2"><g id="OBJECTS"><path d="M66.72,67a202,202,0,0,1,33.83-19L70.7,3.54l-26.86,24S21,39.33,2.12,32.49L0,39.25,28.6,80.7S51.55,80.38,66.72,67Z" fill="#5186c7"/><path d="M42.53,25.2l22,38.94s-17,14.09-34.92,10.39L2.76,30.45C27.14,35.78,27.43,17.19,42.53,25.2Z" fill="#f5f9fd"/><path d="M42.53,25.2C41.48,12.7,64.5,0,64.5,0L94.3,45.2s-18,.82-29.8,18.94Z" fill="#f5f9fd"/><line x1="42.53" y1="25.2" x2="64.5" y2="64.14" fill="none" stroke="#5186c7" stroke-miterlimit="10"/><path d="M26.41,39c-1.07-2-2.1-4-3.36-5.91a.64.64,0,0,0-.71-.3c-2.53,1-5.19,1.67-7.8,2.47a.78.78,0,0,0-.74.3.75.75,0,0,0,.14,1.21l1.85,3.58c.34.65.66,1.31,1,1.94A2.12,2.12,0,0,0,18.1,43.4,3.2,3.2,0,0,0,20,43c.68-.3,1.34-.64,2-1q2.06-1,4.12-2A.82.82,0,0,0,26.41,39Zm-4.55,1.49-1.69.85-.88.46c-.2.11-.51.34-.74.3-.42-.08-.64-.86-.8-1.17l-.88-1.71c-.49-.92-1-1.85-1.46-2.78,2.24-.79,4.45-1.66,6.74-2.28.73,1.67,1.6,3.29,2.47,4.9C23.7,39.52,22.79,40,21.86,40.47Z" fill="#cfe1ef"/><path d="M38.93,26.82c-4.29-1.37-7.5,2.94-11.3,3.9a.54.54,0,0,0,.27,1.05,19.1,19.1,0,0,0,5.16-2.4c1.69-.94,3.54-1.65,5.46-1C39.5,28.72,39.93,27.13,38.93,26.82Z" fill="#cfe1ef"/><path d="M40.18,30.9a11.68,11.68,0,0,0-2.7.17,13.55,13.55,0,0,0-2.65.67,13.86,13.86,0,0,0-4.64,2.8c-.63.57.29,1.46.93.93a12.48,12.48,0,0,1,4.24-2.33,13.39,13.39,0,0,1,2.32-.52,17.39,17.39,0,0,1,2.5,0,.86.86,0,1,0,0-1.71Z" fill="#cfe1ef"/><path d="M43.2,36.61c-8.41.82-14.61,7.34-22.63,9.31a.66.66,0,0,0,.33,1.28c4-.81,7.57-2.78,11.13-4.67s7.15-3.73,11.17-4.05C44.39,38.38,44.39,36.5,43.2,36.61Z" fill="#cfe1ef"/><path d="M30.9,46.61a11.67,11.67,0,0,0-1.9.78,17.06,17.06,0,0,1-1.68.64,19.9,19.9,0,0,1-3.73.83.7.7,0,0,0-.68.68.69.69,0,0,0,.68.68,16.9,16.9,0,0,0,4.12-.68,16.17,16.17,0,0,0,1.95-.71,5.49,5.49,0,0,0,1.87-1.12A.66.66,0,0,0,30.9,46.61Z" fill="#cfe1ef"/><path d="M54,52.84c-1-3.44-3.37-7.62-7.49-7.45-2.38.11-4.45,1.48-6.37,2.75a64.34,64.34,0,0,1-6.23,3.62,82.33,82.33,0,0,1-7.55,3.38A.64.64,0,0,0,26,56a.8.8,0,0,0-.77,1.2c1,1.81,2.19,3.53,3.3,5.28a.87.87,0,0,0,1.17.32,73,73,0,0,1,11.33-5.47c2-.73,4-1.39,6-2A42.08,42.08,0,0,1,53.17,54,.9.9,0,0,0,54,52.84Zm-7.43.91c-2.06.57-4.09,1.24-6.09,2a77.1,77.1,0,0,0-10.92,5.14c-.93-1.53-1.84-3.08-2.88-4.53l0,0h0A55,55,0,0,0,38.9,51c3-1.74,7.47-5.84,10.76-2.56a11.34,11.34,0,0,1,2.3,4C50.17,52.87,48.38,53.25,46.6,53.75Z" fill="#cfe1ef"/><path d="M52.84,55.54c-1.82.51-3.6,1.31-5.37,2l-5.37,2q-5.37,2-10.7,4c-.84.33-.52,1.68.36,1.38Q37.23,63,42.65,61l5.37-2c1.8-.66,3.69-1.21,5.43-2C54.3,56.66,53.72,55.29,52.84,55.54Z" fill="#cfe1ef"/><path d="M42.37,63.8a2.5,2.5,0,0,0-1.26.4l-1,.47q-1,.45-2,.81a27.86,27.86,0,0,1-4.39,1.17.74.74,0,0,0-.53.91.76.76,0,0,0,.91.53,26.75,26.75,0,0,0,4.59-1c.75-.24,1.5-.52,2.23-.83s1.71-.59,2.1-1.29A.76.76,0,0,0,42.37,63.8Z" fill="#cfe1ef"/><path d="M61.42,8.12a6.52,6.52,0,0,0-2.56,1c-.76.41-1.51.84-2.24,1.31a30.81,30.81,0,0,0-4.34,3.38,29.87,29.87,0,0,0-6.45,8.71c-.39.79.79,1.48,1.2.68A29.56,29.56,0,0,1,53.31,15a28.76,28.76,0,0,1,4.11-3.16c.7-.44,1.42-.85,2.15-1.23a9.74,9.74,0,0,0,2.37-1.25A.75.75,0,0,0,61.42,8.12Z" fill="#cfe1ef"/><path d="M53.58,19.43a.59.59,0,0,0-.7-.1,6.85,6.85,0,0,0-1.36,1.33c-.41.48-.81,1-1.21,1.48l-2.37,2.95a.66.66,0,1,0,.94.94l2.46-2.86c.4-.47.81-.93,1.2-1.41a7,7,0,0,0,1.14-1.63A.61.61,0,0,0,53.58,19.43Z" fill="#cfe1ef"/><path d="M73.7,22c-1-1.87-2.28-3.92-4.34-4.8-2.34-1-4.79,0-6.88,1.13a37.46,37.46,0,0,0-6,4.16A27,27,0,0,0,51.4,28a.94.94,0,0,0-.06.15.86.86,0,0,0-.8,1.27c1.29,2,2.9,3.81,4.35,5.69a.89.89,0,0,0,1.23,0A107.21,107.21,0,0,1,73.39,23.15.84.84,0,0,0,73.7,22ZM52.22,28.78a.6.6,0,0,0,.13-.09c1.54-1.58,3-3.19,4.7-4.63a35.2,35.2,0,0,1,5.3-3.78c1.78-1,4.1-2.47,6.22-1.65,1.52.59,2.48,2.07,3.27,3.48A109.21,109.21,0,0,0,55.66,33.23C54.54,31.73,53.44,30.19,52.22,28.78Z" fill="#cfe1ef"/><path d="M75.23,25.33c-.59-.26-1,0-1.6.25s-.95.42-1.41.66a22.3,22.3,0,0,0-2.74,1.64,22.07,22.07,0,0,0-4.62,4.33c-.52.63.35,1.55.91.91a23.49,23.49,0,0,1,4.45-3.94,23.24,23.24,0,0,1,2.55-1.49c.45-.22.89-.43,1.35-.62s1.13-.31,1.36-.81A.68.68,0,0,0,75.23,25.33Z" fill="#cfe1ef"/><path d="M77.49,28.84a.73.73,0,0,0-.72-.25,1.72,1.72,0,0,0-.62.31l-.43.27-.9.58c-.61.39-1.22.78-1.81,1.21a.59.59,0,1,0,.58,1c.66-.33,1.3-.7,1.93-1.07l1-.55.44-.26.25-.15a1.31,1.31,0,0,0,.38-.36A.7.7,0,0,0,77.49,28.84Z" fill="#cfe1ef"/><path d="M78.8,33.24a7.57,7.57,0,0,0-2.54.86c-.77.33-1.53.68-2.28,1.06A38.9,38.9,0,0,0,61.51,45c-.53.63.36,1.55.92.92a39.91,39.91,0,0,1,7.67-6.72,38.64,38.64,0,0,1,4.35-2.55c.75-.38,1.51-.73,2.29-1.06a11,11,0,0,0,2.42-1C79.7,34.22,79.62,33.21,78.8,33.24Z" fill="#cfe1ef"/><path d="M63.71,35.29A3.34,3.34,0,0,0,60,34.22,4.89,4.89,0,0,0,57,38a.58.58,0,0,0,.23.6,3.75,3.75,0,0,0,6.76.75A3.49,3.49,0,0,0,63.71,35.29Zm-.93,2.21v.1a.58.58,0,0,0,0,.1s0,.11,0,.16l-.06.16v0s0,0,0,0-.12.22-.19.33l-.06.08-.06.06a1.75,1.75,0,0,1-.24.23l-.06.06-.15.1-.29.17-.08,0-.09,0-.33.09h-.51l-.41-.11-.06,0L59.92,39a3.79,3.79,0,0,1-.34-.2l-.07,0-.11-.1a3,3,0,0,1-.31-.31L59,38.26a.74.74,0,0,1-.09-.12,2.63,2.63,0,0,1-.2-.33.76.76,0,0,0-.25-.28,3.33,3.33,0,0,1,1.45-1.69,2.2,2.2,0,0,1,1.37-.28,1.76,1.76,0,0,1,.25.06.75.75,0,0,1,.24.1,1.41,1.41,0,0,1,.47.35l.11.12,0,0v0a2.82,2.82,0,0,1,.18.29,1,1,0,0,1,.07.15l0,0h0c0,.12.08.24.11.37a.54.54,0,0,0,0,.15v.09A1,1,0,0,1,62.78,37.5Z" fill="#cfe1ef"/><path d="M68.77,44.31a.76.76,0,0,0-1-.2c-1.38,1-2.64,2.27-3.93,3.43a.71.71,0,0,0,0,1,.73.73,0,0,0,1,0l1.94-1.59a24.8,24.8,0,0,0,1.89-1.65A.75.75,0,0,0,68.77,44.31Z" fill="#cfe1ef"/><path d="M83.09,39.47a33,33,0,0,0-4.7,2.13,48,48,0,0,0-4.52,2.73,44.24,44.24,0,0,0-7.82,6.89c-.57.63.34,1.56.94.94a49,49,0,0,1,7.8-6.43A44.28,44.28,0,0,1,79,43.22c1.54-.8,3.14-1.42,4.71-2.14C84.65,40.67,84,39.16,83.09,39.47Z" fill="#cfe1ef"/></g></g></svg>